<?xml version="1.0" encoding="utf-8"?>
<!-- Generator: Adobe Illustrator 18.1.0, SVG Export Plug-In . SVG Version: 6.00 Build 0)  -->
<svg version="1.1" id="Layer_1" xmlns="http://www.w3.org/2000/svg" xmlns:xlink="http://www.w3.org/1999/xlink" x="0px" y="0px"
	 viewBox="0 0 387 94.9" enable-background="new 0 0 387 94.9" xml:space="preserve">
<path fill="#6C83AC" d="M120.3,58.8c0,0-57.2-57.2-57.2-57.2c-0.5-0.5-1.2-0.8-2-0.8c-0.8,0-1.5,0.3-2.1,0.8L1.8,58.8
	C1.3,59.4,1,60.1,1,60.9c0,0.8,0.3,1.5,0.8,2.1v0l15.1,15.1c0.5,0.5,1.3,0.8,2.1,0.8c0.8,0,1.5-0.3,2.1-0.9c0,0,37.9-38,38-38
	c0.5-0.5,1.3-0.8,2-0.8c0.8,0,1.5,0.3,2,0.8l38.1,38.1c0.5,0.5,1.2,0.8,2,0.8c0.8,0,1.6-0.3,2.1-0.9l15-15c0.6-0.5,0.9-1.3,0.9-2.1
	S120.9,59.3,120.3,58.8z"/>
<path fill="#90CD95" d="M78.2,73.3L63.1,58.2c-0.5-0.5-1.2-0.8-1.9-0.8c-0.8,0-1.4,0.3-1.9,0.8L44.1,73.3c-0.5,0.5-0.8,1.2-0.8,1.9
	c0,0.8,0.3,1.4,0.8,1.9l0,0l15.1,15.1c0.5,0.5,1.2,0.8,1.9,0.8s1.4-0.3,1.9-0.8l15.1-15.1v0c0.5-0.5,0.8-1.2,0.8-1.9
	C79,74.5,78.7,73.8,78.2,73.3z"/>
<g>
	<path fill="#414347" d="M352.6,23.1c-19.9,0-33.8,14.7-33.8,35.7c0,20.8,14.2,35.9,33.8,35.9c19.6,0,33.8-15.1,33.8-35.9
		C386.4,37.8,372.5,23.1,352.6,23.1z M352.6,33.9c10.3,0,21.3,7.8,21.3,24.9c0,12.1-6.7,25.1-21.3,25.1c-14.7,0-21.3-13-21.3-25.1
		C331.2,41.7,342.3,33.9,352.6,33.9z"/>
	<path fill="#414347" d="M283.1,59.7c0-21.9-13.2-36.6-32.8-36.6c-19.2,0-33.7,15.4-33.7,35.7c0,21.1,14.4,35.9,34.9,35.9
		c10.5,0,19.5-3.9,26.5-10.7c0,0,0.1-0.1,0.1-0.1c0.1-0.1,0.1-0.2,0.2-0.3c0-0.1,0.1-0.3,0.1-0.4c0-0.3-0.1-0.5-0.3-0.7l-0.1-0.2
		l-3.8-5.2l-0.3-0.5c-0.2-0.2-0.5-0.3-0.8-0.3c-0.3,0-0.6,0.1-0.8,0.3c-0.1,0.1-0.1,0.1-0.2,0.2c-5.1,5-12.3,7.9-19.7,7.9
		c-10.6,0-21.7-6.7-23.1-21.5c0,0,52.6,0,52.6,0c0,0,0,0,0,0c0.4,0,0.8-0.2,1-0.5c0.1-0.1,0.1-0.2,0.2-0.3c0-0.1,0.1-0.2,0.1-0.3
		C283.1,61.9,283.1,59.7,283.1,59.7z M229.1,53.8c0.9-10.3,8.3-20.6,21-20.6c7,0,20.4,4.3,21.2,20.6H229.1z"/>
	<path fill="#414347" d="M204.6,2.1c0,0,0-0.1,0-0.1c0-0.6-0.5-1.1-1.2-1.2c0,0-0.2,0-0.2,0c0,0-9.3,1.5-9.4,1.5
		c-0.6,0.1-1.1,0.6-1.2,1.2c0,0,0,0.1,0,0.1v88.1c0,0,0,0.1,0,0.1c0,0.5,0.3,0.9,0.7,1.1c0,0,0.1,0,0.1,0c0.1,0.1,0.3,0.1,0.4,0.1
		c0,0,0,0,0,0c0,0,0,0,0,0h9.3c0,0,0,0,0,0c0,0,0,0,0,0c0.4,0,0.8-0.2,1-0.5c0.1-0.1,0.1-0.2,0.2-0.3c0-0.1,0.1-0.2,0.1-0.4
		c0,0,0-0.1,0-0.1V2.1z"/>
	<path fill="#414347" d="M306.9,26c0-0.6-0.5-1.1-1.2-1.2c0,0-9.6,0-9.6,0c-0.6,0.1-1.1,0.6-1.2,1.2c0,0,0,65.9,0,65.9
		c0,0.5,0.3,0.9,0.7,1.1c0,0,0.1,0,0.1,0c0.1,0.1,0.3,0.1,0.4,0.1c0,0,9.4,0,9.5,0c0.4,0,0.8-0.2,1-0.5c0.1-0.1,0.1-0.2,0.2-0.3
		c0-0.1,0.1-0.2,0.1-0.4C306.9,91.9,306.9,26,306.9,26z"/>
	<path fill="#414347" d="M306.9,1.9c0-0.6-0.5-1.2-1.2-1.2c0,0-9.6,1.5-9.6,1.5c-0.6,0.1-1.1,0.6-1.2,1.2c0,0,0,10.6,0,10.6
		c0,0.5,0.3,0.9,0.7,1.1c0,0,0.1,0,0.1,0c0.1,0.1,0.3,0.1,0.4,0.1c0,0,9.4,0,9.5,0c0.4,0,0.8-0.2,1-0.5c0.1-0.1,0.1-0.2,0.2-0.3
		c0-0.1,0.1-0.2,0.1-0.4C306.9,14.1,306.9,1.9,306.9,1.9z"/>
	<path fill="#414347" d="M184.7,4.3c-0.1-0.1-0.3-0.2-0.4-0.3c-0.5-0.3-1-0.6-1-0.6c-2.8-1.5-6.3-2.6-10.6-2.6
		c-12.4,0-20.1,8.9-20.1,22.7v4.3c0,0-6.8,0-6.8,0c-0.6,0-1.1,0.6-1.2,1.2c0,0,0,8.2,0,8.3c0,0.7,0.6,1.2,1.2,1.2c0,0,6.7,0,6.7,0
		s0,53.4,0,53.5c0.1,0.6,0.6,1.1,1.2,1.1c0,0,9.5,0,9.5,0c0.7,0,1.2-0.5,1.2-1.2c0,0,0-53.4,0-53.4s15,0,15,0c0.7,0,1.3-0.6,1.3-1.3
		v-8.1c0-0.7-0.5-1.2-1.2-1.3c0,0-0.1,0-0.2,0h-14.9v-4.3c0-8.1,3.4-12.4,9.9-12.4c2.1,0,3.7,0.4,5.4,1.3c0,0,0.1,0,0.1,0
		c0.1,0.1,0.3,0.1,0.5,0.1c0.4,0,0.8-0.2,1-0.5c0.1-0.1,0.1-0.2,0.2-0.3c0.7-1.2,1.9-3.3,3.4-5.9c0.1-0.1,0.1-0.2,0.2-0.3
		c0-0.1,0.1-0.3,0.1-0.4C185,4.8,184.9,4.5,184.7,4.3z"/>
</g>
</svg>
